<svg width="32" height="32" viewBox="0 0 32 32" fill="none" xmlns="http://www.w3.org/2000/svg">
<path d="M28.8333 15.9998C28.8333 23.0875 23.0876 28.8332 16 28.8332C8.9123 28.8332 3.16663 23.0875 3.16663 15.9998C3.16663 8.91218 8.9123 3.1665 16 3.1665C23.0876 3.1665 28.8333 8.91218 28.8333 15.9998Z" fill="#F5F5FF" stroke="#E5EEFF"/>
<path d="M21.3333 14.9998H17V10.6665C17 10.1198 16.5466 9.6665 16 9.6665C15.4533 9.6665 15 10.1198 15 10.6665V14.9998H10.6666C10.12 14.9998 9.66663 15.4532 9.66663 15.9998C9.66663 16.5465 10.12 16.9998 10.6666 16.9998H15V21.3332C15 21.8798 15.4533 22.3332 16 22.3332C16.5466 22.3332 17 21.8798 17 21.3332V16.9998H21.3333C21.88 16.9998 22.3333 16.5465 22.3333 15.9998C22.3333 15.4532 21.88 14.9998 21.3333 14.9998Z" fill="#90A4BA"/>
</svg>
