<svg width="22" height="22" viewBox="0 0 22 22" fill="none" xmlns="http://www.w3.org/2000/svg">
<path d="M19.6668 11.0002C19.6668 15.7866 15.7866 19.6668 11.0002 19.6668C6.21369 19.6668 2.3335 15.7866 2.3335 11.0002C2.3335 6.2137 6.2137 2.3335 11.0002 2.3335C15.7866 2.3335 19.6668 6.21369 19.6668 11.0002Z" fill="#A3CCFE" stroke="#A3CCFE"/>
<path d="M14.6668 10.3127H11.6877V7.3335C11.6877 6.95766 11.376 6.646 11.0002 6.646C10.6243 6.646 10.3127 6.95766 10.3127 7.3335V10.3127H7.3335C6.95766 10.3127 6.646 10.6243 6.646 11.0002C6.646 11.376 6.95766 11.6877 7.3335 11.6877H10.3127V14.6668C10.3127 15.0427 10.6243 15.3543 11.0002 15.3543C11.376 15.3543 11.6877 15.0427 11.6877 14.6668V11.6877H14.6668C15.0427 11.6877 15.3543 11.376 15.3543 11.0002C15.3543 10.6243 15.0427 10.3127 14.6668 10.3127Z" fill="white"/>
</svg>
