<svg width="25" height="25" viewBox="0 0 25 25" fill="none" xmlns="http://www.w3.org/2000/svg">
<g clip-path="url(#clip0_49_3887)">
<path d="M13.0047 23.0994L12.2945 23.2892C11.7496 23.4341 11.1746 23.2244 10.8547 22.7642L7.81485 18.429L12.925 18.974L13.8949 21.2841C14.2047 22.0341 13.7899 22.8892 13.0047 23.0994ZM3.13985 9.40404L1.48985 9.84896C0.419928 10.1388 -0.220306 11.2388 0.0699285 12.3091L1.11485 16.2091C1.40001 17.279 2.50001 17.9142 3.57501 17.624L5.22501 17.1841L3.13985 9.40404ZM19.5828 17.2603L15.5379 2.16224C15.4164 1.70795 14.877 1.51771 14.4973 1.79427L4.5879 9.01849L6.67188 16.7958L18.8656 18.0982C19.3328 18.1482 19.7047 17.7134 19.5828 17.2603ZM20.1965 4.75795C20.0824 4.75795 19.968 4.72904 19.8625 4.6681C19.5422 4.48334 19.4328 4.07396 19.6176 3.75404L20.5852 2.07865C20.7695 1.75795 21.1801 1.64857 21.4992 1.83373C21.8195 2.01849 21.9289 2.42787 21.7441 2.74779L20.7766 4.42318C20.6524 4.63802 20.4274 4.75795 20.1965 4.75795ZM21.152 9.41771C20.8563 9.41771 20.5859 9.22045 20.5059 8.92162C20.4106 8.56459 20.6223 8.19779 20.9793 8.1017L22.8481 7.60131C23.207 7.50599 23.5723 7.71693 23.6684 8.07474C23.7637 8.43177 23.552 8.79857 23.1949 8.89467L21.3262 9.39506C21.2672 9.41068 21.2094 9.41771 21.152 9.41771ZM24.3301 14.8986C24.216 14.8986 24.1016 14.8697 23.9961 14.8087L22.3207 13.8411C22.0004 13.6564 21.891 13.247 22.0758 12.9271C22.2606 12.6064 22.6707 12.497 22.9899 12.6822L24.6652 13.6497C24.9856 13.8345 25.0949 14.2439 24.9102 14.5638C24.7863 14.7786 24.5609 14.8986 24.3301 14.8986Z" fill="#5B758F"/>
</g>
<defs>
<clipPath id="clip0_49_3887">
<rect width="25" height="25" fill="white"/>
</clipPath>
</defs>
</svg>
