<svg width="39" height="39" viewBox="0 0 39 39" fill="none" xmlns="http://www.w3.org/2000/svg">
<rect x="0.5" y="0.5" width="38" height="38" rx="7.5" stroke="#E0E7F1"/>
<path d="M27.9375 16.6043C26.0521 16.6043 25.2813 15.271 26.2188 13.6356C26.7605 12.6877 26.4375 11.4793 25.4896 10.9377L23.6875 9.90641C22.8646 9.41682 21.8021 9.70849 21.3125 10.5314L21.198 10.7293C20.2605 12.3647 18.7188 12.3647 17.7709 10.7293L17.6563 10.5314C17.1875 9.70849 16.125 9.41682 15.3021 9.90641L13.5 10.9377C12.5521 11.4793 12.2292 12.6981 12.7709 13.646C13.7188 15.271 12.948 16.6043 11.0625 16.6043C9.97921 16.6043 9.08337 17.4897 9.08337 18.5835V20.4168C9.08337 21.5002 9.96879 22.396 11.0625 22.396C12.948 22.396 13.7188 23.7293 12.7709 25.3647C12.2292 26.3127 12.5521 27.521 13.5 28.0627L15.3021 29.0939C16.125 29.5835 17.1875 29.2918 17.6771 28.4689L17.7917 28.271C18.7292 26.6356 20.2709 26.6356 21.2188 28.271L21.3334 28.4689C21.823 29.2918 22.8855 29.5835 23.7084 29.0939L25.5105 28.0627C26.4584 27.521 26.7813 26.3022 26.2396 25.3647C25.2917 23.7293 26.0625 22.396 27.948 22.396C29.0313 22.396 29.9271 21.5106 29.9271 20.4168V18.5835C29.9167 17.5002 29.0313 16.6043 27.9375 16.6043ZM19.5 22.8856C17.6355 22.8856 16.1146 21.3647 16.1146 19.5002C16.1146 17.6356 17.6355 16.1147 19.5 16.1147C21.3646 16.1147 22.8855 17.6356 22.8855 19.5002C22.8855 21.3647 21.3646 22.8856 19.5 22.8856Z" fill="#0055EE"/>
</svg>
