<svg width="30" height="30" viewBox="0 0 30 30" fill="none" xmlns="http://www.w3.org/2000/svg">
<rect x="0.5" y="0.5" width="29" height="29" rx="7.5" stroke="#E0E7F1"/>
<path d="M23.3325 10.3984C22.5533 9.53673 21.2516 9.10589 19.3633 9.10589H19.1433V9.06923C19.1433 7.52923 19.1433 5.62256 15.6966 5.62256H14.3033C10.8566 5.62256 10.8566 7.53839 10.8566 9.06923V9.11506H10.6366C8.73912 9.11506 7.44662 9.54589 6.66745 10.4076C5.75995 11.4159 5.78745 12.7726 5.87912 13.6984L5.88829 13.7626L5.95741 14.4883C5.97167 14.6381 6.05247 14.7735 6.17841 14.8558C6.39977 15.0005 6.75492 15.2289 6.96995 15.3484C7.09829 15.4309 7.23579 15.5042 7.37329 15.5776C8.94079 16.4392 10.6641 17.0167 12.415 17.3009C12.4975 18.1626 12.8733 19.1709 14.8808 19.1709C16.8883 19.1709 17.2825 18.1717 17.3466 17.2826C19.2166 16.9801 21.0225 16.3292 22.6541 15.3759C22.7091 15.3484 22.7458 15.3209 22.7916 15.2934C23.1501 15.0908 23.5218 14.8418 23.8617 14.5972C23.9748 14.5157 24.047 14.3896 24.0624 14.2511L24.075 14.1384L24.1208 13.7076C24.13 13.6526 24.13 13.6067 24.1391 13.5426C24.2125 12.6167 24.1941 11.3517 23.3325 10.3984ZM15.9991 16.6776C15.9991 17.6492 15.9991 17.7959 14.8716 17.7959C13.7441 17.7959 13.7441 17.6217 13.7441 16.6867V15.5317H15.9991V16.6776ZM12.1675 9.10589V9.06923C12.1675 7.51089 12.1675 6.93339 14.3033 6.93339H15.6966C17.8325 6.93339 17.8325 7.52006 17.8325 9.06923V9.11506H12.1675V9.10589Z" fill="#0055EE"/>
<path d="M23.0675 16.6213C23.4213 16.4535 23.8277 16.7343 23.7923 17.1243L23.47 20.6742C23.2775 22.5076 22.5259 24.3776 18.4925 24.3776H11.5075C7.47419 24.3776 6.72252 22.5076 6.53002 20.6834L6.22431 17.3206C6.18927 16.9351 6.58643 16.6547 6.93925 16.8138C7.99052 17.288 9.84697 18.0914 11.0148 18.4012C11.179 18.4448 11.3119 18.5625 11.3849 18.7158C11.9456 19.8925 13.1484 20.5184 14.8809 20.5184C16.5962 20.5184 17.814 19.8684 18.3766 18.6885C18.4498 18.5351 18.5827 18.4174 18.747 18.3736C19.9878 18.0426 21.9666 17.1436 23.0675 16.6213Z" fill="#0055EE"/>
</svg>
