<svg width="25" height="25" viewBox="0 0 25 25" fill="none" xmlns="http://www.w3.org/2000/svg">
<path d="M11.1978 4.83337L6.58325 2.55212C4.09367 1.33337 2.052 2.57295 2.052 5.30212V20.7605C2.052 21.948 3.04159 22.9167 4.24992 22.9167H11.9791C12.552 22.9167 13.0208 22.448 13.0208 21.875V7.71879C13.0208 6.62504 12.1978 5.32295 11.1978 4.83337ZM9.34367 14.323H5.72909C5.302 14.323 4.94784 13.9688 4.94784 13.5417C4.94784 13.1146 5.302 12.7605 5.72909 12.7605H9.34367C9.77075 12.7605 10.1249 13.1146 10.1249 13.5417C10.1249 13.9688 9.78117 14.323 9.34367 14.323ZM9.34367 10.1563H5.72909C5.302 10.1563 4.94784 9.80212 4.94784 9.37504C4.94784 8.94795 5.302 8.59379 5.72909 8.59379H9.34367C9.77075 8.59379 10.1249 8.94795 10.1249 9.37504C10.1249 9.80212 9.78117 10.1563 9.34367 10.1563Z" fill="#0055EE"/>
<path d="M22.9166 18.7915V20.3123C22.9166 21.7498 21.7499 22.9165 20.3124 22.9165H15.5937C15.0312 22.9165 14.5833 22.4686 14.5833 21.9061V19.6561C15.6978 19.7915 16.8749 19.4686 17.7187 18.7915C18.427 19.3644 19.3333 19.7082 20.3228 19.7082C21.2916 19.7082 22.1978 19.3644 22.9166 18.7915Z" fill="#0055EE"/>
<path d="M22.9166 15.677V15.6874C22.8333 17.052 21.7187 18.1457 20.3228 18.1457C18.8749 18.1457 17.7187 16.9686 17.7187 15.5415C17.7187 17.1353 16.2499 18.4165 14.5833 18.0936V12.4999C14.5833 11.8332 15.1978 11.3332 15.8541 11.479L17.7187 11.8957L18.2187 12.0103L20.3437 12.4895C20.8541 12.5936 21.3228 12.7707 21.7291 13.0311C21.7291 13.0415 21.7395 13.0415 21.7395 13.0415C21.8437 13.1145 21.9478 13.1978 22.0416 13.2915C22.5208 13.7707 22.8333 14.4686 22.9062 15.4895C22.9062 15.552 22.9166 15.6145 22.9166 15.677Z" fill="#0055EE"/>
</svg>
