<svg width="30" height="30" viewBox="0 0 30 30" fill="none" xmlns="http://www.w3.org/2000/svg">
<path d="M19.025 8.1875H7.225C6.875 8.1875 6.55 8.2 6.25 8.2125C3.2875 8.3875 2.5 9.475 2.5 12.85V13.575C2.5 14.2625 3.0625 14.825 3.75 14.825H22.5C23.1875 14.825 23.75 14.2625 23.75 13.575V12.85C23.75 9.125 22.8 8.1875 19.025 8.1875Z" fill="#0055EE"/>
<path d="M3.75 16.7002C3.0625 16.7002 2.5 17.2627 2.5 17.9502V21.5877C2.5 25.3127 3.45 26.2502 7.225 26.2502H19.025C22.7375 26.2502 23.7125 25.3502 23.75 21.7877V17.9502C23.75 17.2627 23.1875 16.7002 22.5 16.7002H3.75ZM8.7 23.2002H6.5625C6.05 23.2002 5.625 22.7752 5.625 22.2627C5.625 21.7502 6.05 21.3252 6.5625 21.3252H8.7125C9.225 21.3252 9.65 21.7502 9.65 22.2627C9.65 22.7752 9.225 23.2002 8.7 23.2002ZM15.6875 23.2002H11.3875C10.875 23.2002 10.45 22.7752 10.45 22.2627C10.45 21.7502 10.875 21.3252 11.3875 21.3252H15.6875C16.2 21.3252 16.625 21.7502 16.625 22.2627C16.625 22.7752 16.2125 23.2002 15.6875 23.2002Z" fill="#0055EE"/>
<path d="M27.5 16.6625V10.1125C27.5 6.2 25.2625 4.5 21.8875 4.5H10.725C9.77501 4.5 8.92501 4.6375 8.17501 4.925C7.58751 5.1375 7.06251 5.45 6.63751 5.8625C6.41251 6.075 6.58751 6.425 6.91251 6.425H20.5C23.3125 6.425 25.5875 8.7 25.5875 11.5125V20.475C25.5875 20.7875 25.925 20.9625 26.15 20.7375C27.0125 19.825 27.5 18.4875 27.5 16.6625Z" fill="#0055EE"/>
</svg>
