<svg width="39" height="39" viewBox="0 0 39 39" fill="none" xmlns="http://www.w3.org/2000/svg">
<rect x="0.5" y="0.5" width="38" height="38" rx="7.5" fill="white"/>
<rect x="0.5" y="0.5" width="38" height="38" rx="7.5" stroke="#E5EEFF"/>
<path d="M19.5 22.625C21.2259 22.625 22.625 21.2259 22.625 19.5C22.625 17.7741 21.2259 16.375 19.5 16.375C17.7741 16.375 16.375 17.7741 16.375 19.5C16.375 21.2259 17.7741 22.625 19.5 22.625Z" fill="#006FFF"/>
<path d="M24.7085 10.6458H14.2918C11.1668 10.6458 9.0835 12.2083 9.0835 15.8541V16.3749V22.6249V23.1458C9.0835 26.7916 11.1668 28.3541 14.2918 28.3541H24.7085C27.8335 28.3541 29.9168 26.7916 29.9168 23.1458V22.6249V16.3749V15.8541C29.9168 12.2083 27.8335 10.6458 24.7085 10.6458ZM14.2918 26.7916C14.2918 23.8541 13.3439 22.7708 10.646 22.6458V22.6249V16.3749V16.3541C13.3439 16.2291 14.2918 15.1458 14.2918 12.2083H24.7085C24.7085 15.1458 25.6564 16.2291 28.3543 16.3541V16.3749V22.6249V22.6458C25.6564 22.7708 24.7085 23.8541 24.7085 26.7916H14.2918Z" fill="#006FFF"/>
</svg>
