<svg width="50" height="50" viewBox="0 0 50 50" fill="none" xmlns="http://www.w3.org/2000/svg">
<rect width="50" height="50" rx="10" fill="#F1F6FE"/>
<path d="M28.59 25.4V29.47C28.59 29.83 28.55 30.17 28.46 30.48C28.09 31.95 26.87 32.87 25.19 32.87H22.47L19.45 34.88C19 35.19 18.4 34.86 18.4 34.32V32.87C17.38 32.87 16.53 32.53 15.94 31.94C15.34 31.34 15 30.49 15 29.47V25.4C15 23.5 16.18 22.19 18 22.02C18.13 22.01 18.26 22 18.4 22H25.19C27.23 22 28.59 23.36 28.59 25.4Z" fill="#0055EE"/>
<path d="M30.75 28.6C32.02 28.6 33.09 28.18 33.83 27.43C34.58 26.69 35 25.62 35 24.35V19.25C35 16.9 33.1 15 30.75 15H22.25C19.9 15 18 16.9 18 19.25V20C18 20.28 18.22 20.5 18.5 20.5H25.19C27.9 20.5 30.09 22.69 30.09 25.4V28.1C30.09 28.38 30.31 28.6 30.59 28.6H30.75Z" fill="#0055EE"/>
</svg>
