<svg width="35" height="35" viewBox="0 0 35 35" fill="none" xmlns="http://www.w3.org/2000/svg">
<circle cx="17.5" cy="17.5" r="17.5" fill="#006FFF"/>
<path d="M25.5 17.4375H23.97C23.7 14.58 21.42 12.2925 18.5625 12.03V10.5C18.5625 10.1925 18.3075 9.9375 18 9.9375C17.6925 9.9375 17.4375 10.1925 17.4375 10.5V12.03C14.58 12.3 12.2925 14.58 12.03 17.4375H10.5C10.1925 17.4375 9.9375 17.6925 9.9375 18C9.9375 18.3075 10.1925 18.5625 10.5 18.5625H12.03C12.3 21.42 14.58 23.7075 17.4375 23.97V25.5C17.4375 25.8075 17.6925 26.0625 18 26.0625C18.3075 26.0625 18.5625 25.8075 18.5625 25.5V23.97C21.42 23.7 23.7075 21.42 23.97 18.5625H25.5C25.8075 18.5625 26.0625 18.3075 26.0625 18C26.0625 17.6925 25.8075 17.4375 25.5 17.4375ZM18 20.34C16.71 20.34 15.66 19.29 15.66 18C15.66 16.71 16.71 15.66 18 15.66C19.29 15.66 20.34 16.71 20.34 18C20.34 19.29 19.29 20.34 18 20.34Z" fill="white"/>
</svg>
