<svg width="35" height="35" viewBox="0 0 35 35" fill="none" xmlns="http://www.w3.org/2000/svg">
<circle cx="17.5" cy="17.5" r="17.5" fill="#00E2C5"/>
<path d="M24.125 15.025C23.3375 11.56 20.315 10 17.66 10C17.66 10 17.66 10 17.6525 10C15.005 10 11.975 11.5525 11.1875 15.0175C10.31 18.8875 12.68 22.165 14.825 24.2275C15.62 24.9925 16.64 25.375 17.66 25.375C18.68 25.375 19.7 24.9925 20.4875 24.2275C22.6325 22.165 25.0025 18.895 24.125 15.025ZM17.66 18.7825C16.355 18.7825 15.2975 17.725 15.2975 16.42C15.2975 15.115 16.355 14.0575 17.66 14.0575C18.965 14.0575 20.0225 15.115 20.0225 16.42C20.0225 17.725 18.965 18.7825 17.66 18.7825Z" fill="white"/>
</svg>
