<svg width="50" height="50" viewBox="0 0 50 50" fill="none" xmlns="http://www.w3.org/2000/svg">
<rect x="0.5" y="0.5" width="49" height="49" rx="9.5" fill="#F1F6FE"/>
<rect x="0.5" y="0.5" width="49" height="49" rx="9.5" stroke="#E5EEFF"/>
<path d="M30.62 23.7501C30.19 23.7501 29.85 23.4001 29.85 22.9801C29.85 22.6101 29.48 21.8401 28.86 21.1701C28.25 20.5201 27.58 20.1401 27.02 20.1401C26.59 20.1401 26.25 19.7901 26.25 19.3701C26.25 18.9501 26.6 18.6001 27.02 18.6001C28.02 18.6001 29.07 19.1401 29.99 20.1101C30.85 21.0201 31.4 22.1501 31.4 22.9701C31.4 23.4001 31.05 23.7501 30.62 23.7501Z" fill="#0055EE"/>
<path d="M34.2298 23.75C33.7998 23.75 33.4598 23.4 33.4598 22.98C33.4598 19.43 30.5698 16.55 27.0298 16.55C26.5998 16.55 26.2598 16.2 26.2598 15.78C26.2598 15.36 26.5998 15 27.0198 15C31.4198 15 34.9998 18.58 34.9998 22.98C34.9998 23.4 34.6498 23.75 34.2298 23.75Z" fill="#0055EE"/>
<path d="M24.05 27.95L22.2 29.8C21.81 30.19 21.19 30.19 20.79 29.81C20.68 29.7 20.57 29.6 20.46 29.49C19.43 28.45 18.5 27.36 17.67 26.22C16.85 25.08 16.19 23.94 15.71 22.81C15.24 21.67 15 20.58 15 19.54C15 18.86 15.12 18.21 15.36 17.61C15.6 17 15.98 16.44 16.51 15.94C17.15 15.31 17.85 15 18.59 15C18.87 15 19.15 15.06 19.4 15.18C19.66 15.3 19.89 15.48 20.07 15.74L22.39 19.01C22.57 19.26 22.7 19.49 22.79 19.71C22.88 19.92 22.93 20.13 22.93 20.32C22.93 20.56 22.86 20.8 22.72 21.03C22.59 21.26 22.4 21.5 22.16 21.74L21.4 22.53C21.29 22.64 21.24 22.77 21.24 22.93C21.24 23.01 21.25 23.08 21.27 23.16C21.3 23.24 21.33 23.3 21.35 23.36C21.53 23.69 21.84 24.12 22.28 24.64C22.73 25.16 23.21 25.69 23.73 26.22C23.83 26.32 23.94 26.42 24.04 26.52C24.44 26.91 24.45 27.55 24.05 27.95Z" fill="#0055EE"/>
<path d="M34.9701 31.33C34.9701 31.61 34.9201 31.9 34.8201 32.18C34.7901 32.26 34.7601 32.34 34.7201 32.42C34.5501 32.78 34.3301 33.12 34.0401 33.44C33.5501 33.98 33.0101 34.37 32.4001 34.62C32.3901 34.62 32.3801 34.63 32.3701 34.63C31.7801 34.87 31.1401 35 30.4501 35C29.4301 35 28.3401 34.76 27.1901 34.27C26.0401 33.78 24.8901 33.12 23.7501 32.29C23.3601 32 22.9701 31.71 22.6001 31.4L25.8701 28.13C26.1501 28.34 26.4001 28.5 26.6101 28.61C26.6601 28.63 26.7201 28.66 26.7901 28.69C26.8701 28.72 26.9501 28.73 27.0401 28.73C27.2101 28.73 27.3401 28.67 27.4501 28.56L28.2101 27.81C28.4601 27.56 28.7001 27.37 28.9301 27.25C29.1601 27.11 29.3901 27.04 29.6401 27.04C29.8301 27.04 30.0301 27.08 30.2501 27.17C30.4701 27.26 30.7001 27.39 30.9501 27.56L34.2601 29.91C34.5201 30.09 34.7001 30.3 34.8101 30.55C34.9101 30.8 34.9701 31.05 34.9701 31.33Z" fill="#0055EE"/>
</svg>
