<svg width="36" height="36" viewBox="0 0 36 36" fill="none" xmlns="http://www.w3.org/2000/svg">
<rect x="0.5" y="0.5" width="35" height="35" rx="7.5" stroke="#E0E7F1"/>
<path d="M23.1517 16.8541C22.7575 16.8541 22.4459 16.5333 22.4459 16.1483C22.4459 15.8091 22.1067 15.1033 21.5384 14.4891C20.9792 13.8933 20.365 13.545 19.8517 13.545C19.4575 13.545 19.1459 13.2241 19.1459 12.8391C19.1459 12.4541 19.4667 12.1333 19.8517 12.1333C20.7684 12.1333 21.7309 12.6283 22.5742 13.5175C23.3625 14.3516 23.8667 15.3875 23.8667 16.1391C23.8667 16.5333 23.5459 16.8541 23.1517 16.8541Z" fill="#0055EE"/>
<path d="M26.4609 16.8543C26.0667 16.8543 25.755 16.5335 25.755 16.1485C25.755 12.8943 23.1059 10.2543 19.8609 10.2543C19.4667 10.2543 19.155 9.9335 19.155 9.5485C19.155 9.1635 19.4667 8.8335 19.8517 8.8335C23.885 8.8335 27.1667 12.1152 27.1667 16.1485C27.1667 16.5335 26.8459 16.8543 26.4609 16.8543Z" fill="#0055EE"/>
<path d="M17.1292 20.7043L15.4334 22.4002C15.0759 22.7577 14.5075 22.7577 14.1409 22.4093C14.04 22.3085 13.9392 22.2168 13.8384 22.116C12.8942 21.1627 12.0417 20.1635 11.2809 19.1185C10.5292 18.0735 9.92421 17.0285 9.48421 15.9927C9.05337 14.9477 8.83337 13.9485 8.83337 12.9952C8.83337 12.3718 8.94337 11.776 9.16337 11.226C9.38337 10.6668 9.73171 10.1535 10.2175 9.69516C10.8042 9.11766 11.4459 8.8335 12.1242 8.8335C12.3809 8.8335 12.6375 8.8885 12.8667 8.9985C13.105 9.1085 13.3159 9.2735 13.4809 9.51183L15.6075 12.5093C15.7725 12.7385 15.8917 12.9493 15.9742 13.151C16.0567 13.3435 16.1025 13.536 16.1025 13.7102C16.1025 13.9302 16.0384 14.1502 15.91 14.361C15.7909 14.5718 15.6167 14.7918 15.3967 15.0118L14.7 15.736C14.5992 15.8368 14.5534 15.956 14.5534 16.1027C14.5534 16.176 14.5625 16.2402 14.5809 16.3135C14.6084 16.3868 14.6359 16.4418 14.6542 16.4968C14.8192 16.7993 15.1034 17.1935 15.5067 17.6702C15.9192 18.1468 16.3592 18.6327 16.8359 19.1185C16.9275 19.2102 17.0284 19.3018 17.12 19.3935C17.4867 19.751 17.4959 20.3377 17.1292 20.7043Z" fill="#0055EE"/>
<path d="M27.1392 23.8026C27.1392 24.0593 27.0934 24.3251 27.0017 24.5818C26.9742 24.6551 26.9467 24.7285 26.91 24.8018C26.7542 25.1318 26.5525 25.4435 26.2867 25.7368C25.8375 26.2318 25.3425 26.5893 24.7834 26.8185C24.7742 26.8185 24.765 26.8276 24.7559 26.8276C24.215 27.0476 23.6284 27.1668 22.9959 27.1668C22.0609 27.1668 21.0617 26.9468 20.0075 26.4976C18.9534 26.0485 17.8992 25.4435 16.8542 24.6826C16.4967 24.4168 16.1392 24.1509 15.8 23.8668L18.7975 20.8693C19.0542 21.0618 19.2834 21.2085 19.4759 21.3093C19.5217 21.3276 19.5767 21.3551 19.6409 21.3826C19.7142 21.4101 19.7875 21.4193 19.87 21.4193C20.0259 21.4193 20.145 21.3643 20.2459 21.2635L20.9425 20.576C21.1717 20.3468 21.3917 20.1726 21.6025 20.0626C21.8134 19.9343 22.0242 19.8701 22.2534 19.8701C22.4275 19.8701 22.6109 19.9068 22.8125 19.9893C23.0142 20.0718 23.225 20.191 23.4542 20.3468L26.4884 22.501C26.7267 22.666 26.8917 22.8584 26.9925 23.0876C27.0842 23.3168 27.1392 23.546 27.1392 23.8026Z" fill="#0055EE"/>
</svg>
