<svg width="19" height="16" viewBox="0 0 19 16" fill="none" xmlns="http://www.w3.org/2000/svg">
<path d="M5.37672 0.131229C5.53978 0.0399416 5.71462 0.176964 5.71462 0.363835V13.0655C5.71462 13.2829 5.56643 13.4667 5.37672 13.5729L3.2306 14.8289C1.73288 15.71 0.5 14.9789 0.5 13.1979V4.07749C0.5 3.48695 0.91096 2.75582 1.42238 2.45587L5.37672 0.131229Z" fill="#A3CCFE"/>
<path d="M11.834 2.49491C12.0017 2.58018 12.1074 2.75243 12.1074 2.94063V15.1949C12.1074 15.5657 11.7181 15.8075 11.3858 15.6431L7.59123 13.7667C7.42076 13.6824 7.31287 13.5087 7.31287 13.3185V1.01182C7.31287 0.638681 7.7068 0.397018 8.03943 0.5661L11.834 2.49491Z" fill="#A3CCFE"/>
<path d="M18.4996 2.86879V11.9892C18.4996 12.5798 18.0886 13.3109 17.5772 13.6109L14.4586 15.4454C14.1253 15.6415 13.7051 15.4011 13.7051 15.0144V2.73354C13.7051 2.55604 13.7992 2.39185 13.9523 2.30213L15.769 1.2378C17.2667 0.356683 18.4996 1.08782 18.4996 2.86879Z" fill="#A3CCFE"/>
</svg>
