<svg width="40" height="40" viewBox="0 0 40 40" fill="none" xmlns="http://www.w3.org/2000/svg">
<rect x="0.5" y="0.5" width="39" height="39" rx="9.5" fill="#C0FFF8"/>
<rect x="0.5" y="0.5" width="39" height="39" rx="9.5" stroke="#00E2C5"/>
<circle cx="20" cy="20" r="14" fill="#00E2C5"/>
<path d="M26.4651 17.3375C25.6776 13.8725 22.6551 12.3125 20.0001 12.3125C20.0001 12.3125 20.0001 12.3125 19.9926 12.3125C17.3451 12.3125 14.3151 13.865 13.5276 17.33C12.6501 21.2 15.0201 24.4775 17.1651 26.54C17.9601 27.305 18.9801 27.6875 20.0001 27.6875C21.0201 27.6875 22.0401 27.305 22.8276 26.54C24.9726 24.4775 27.3426 21.2075 26.4651 17.3375ZM20.0001 21.095C18.6951 21.095 17.6376 20.0375 17.6376 18.7325C17.6376 17.4275 18.6951 16.37 20.0001 16.37C21.3051 16.37 22.3626 17.4275 22.3626 18.7325C22.3626 20.0375 21.3051 21.095 20.0001 21.095Z" fill="white"/>
</svg>
