<svg width="25" height="25" viewBox="0 0 25 25" fill="none" xmlns="http://www.w3.org/2000/svg">
<path d="M22.9166 22.9165H2.08331C1.65623 22.9165 1.30206 22.5623 1.30206 22.1353C1.30206 21.7082 1.65623 21.354 2.08331 21.354H22.9166C23.3437 21.354 23.6979 21.7082 23.6979 22.1353C23.6979 22.5623 23.3437 22.9165 22.9166 22.9165Z" fill="#5B758F"/>
<path d="M10.1562 4.16683V22.9168H14.8438V4.16683C14.8438 3.021 14.375 2.0835 12.9687 2.0835H12.0313C10.625 2.0835 10.1562 3.021 10.1562 4.16683Z" fill="#5B758F"/>
<path d="M3.125 10.4168V22.9168H7.29167V10.4168C7.29167 9.271 6.875 8.3335 5.625 8.3335H4.79167C3.54167 8.3335 3.125 9.271 3.125 10.4168Z" fill="#5B758F"/>
<path d="M17.7083 15.6248V22.9165H21.875V15.6248C21.875 14.479 21.4583 13.5415 20.2083 13.5415H19.375C18.125 13.5415 17.7083 14.479 17.7083 15.6248Z" fill="#5B758F"/>
</svg>
