<svg width="36" height="36" viewBox="0 0 36 36" fill="none" xmlns="http://www.w3.org/2000/svg">
<rect x="0.5" y="0.5" width="35" height="35" rx="7.5" stroke="#E0E7F1"/>
<path d="M22.5834 10.2085H13.4167C10.6667 10.2085 8.83337 11.5835 8.83337 14.7918V21.2085C8.83337 24.4168 10.6667 25.7918 13.4167 25.7918H22.5834C25.3334 25.7918 27.1667 24.4168 27.1667 21.2085V14.7918C27.1667 11.5835 25.3334 10.2085 22.5834 10.2085ZM23.0142 15.791L20.145 18.0827C19.54 18.5685 18.77 18.8068 18 18.8068C17.23 18.8068 16.4509 18.5685 15.855 18.0827L12.9859 15.791C12.6925 15.5527 12.6467 15.1127 12.8759 14.8193C13.1142 14.526 13.545 14.471 13.8384 14.7093L16.7075 17.001C17.4042 17.5602 18.5867 17.5602 19.2834 17.001L22.1525 14.7093C22.4459 14.471 22.8859 14.5168 23.115 14.8193C23.3534 15.1127 23.3075 15.5527 23.0142 15.791Z" fill="#0055EE"/>
</svg>
