<svg width="36" height="36" viewBox="0 0 36 36" fill="none" xmlns="http://www.w3.org/2000/svg">
<rect x="0.5" y="0.5" width="35" height="35" rx="7.5" stroke="#E0E7F1"/>
<path d="M25.307 13.1598C25.4908 13.1598 25.6671 13.0906 25.797 12.9676C25.927 12.8445 26 12.6776 26 12.5035V8.65625C26 8.4822 25.927 8.31528 25.797 8.19221C25.6671 8.06914 25.4908 8 25.307 8H21.2445C21.0607 8 20.8845 8.06914 20.7545 8.19221C20.6246 8.31528 20.5516 8.4822 20.5516 8.65625C20.5516 8.8303 20.6246 8.99722 20.7545 9.12029C20.8845 9.24336 21.0607 9.3125 21.2445 9.3125H23.6343L20.9153 11.8873C18.2873 9.86432 14.4045 10.011 11.9587 12.3274C9.3471 14.8005 9.3471 18.8243 11.9587 21.2976C13.0444 22.3278 14.4727 22.971 16.0018 23.1184V24.7653H13.6089C13.4251 24.7653 13.2489 24.8345 13.1189 24.9576C12.989 25.0806 12.916 25.2475 12.916 25.4216C12.916 25.5956 12.989 25.7626 13.1189 25.8856C13.2489 26.0087 13.4251 26.0778 13.6089 26.0778H16.0018V28.3438C16.0018 28.5178 16.0748 28.6847 16.2048 28.8078C16.3347 28.9309 16.511 29 16.6948 29C16.8786 29 17.0548 28.9309 17.1848 28.8078C17.3147 28.6847 17.3877 28.5178 17.3877 28.3438V26.0777H19.7806C19.9644 26.0777 20.1406 26.0085 20.2706 25.8855C20.4006 25.7624 20.4736 25.5955 20.4736 25.4214C20.4736 25.2474 20.4006 25.0805 20.2706 24.9574C20.1406 24.8343 19.9644 24.7652 19.7806 24.7652H17.3877V23.1184C18.9167 22.971 20.345 22.3278 21.4307 21.2977C23.8767 18.9813 24.0316 15.3043 21.8955 12.8157L24.6141 10.2406V12.5035C24.6141 12.6776 24.6871 12.8445 24.817 12.9676C24.947 13.0906 25.1232 13.1598 25.307 13.1598ZM20.4505 20.3695C19.7078 21.0722 18.7618 21.5506 17.732 21.7442C16.7022 21.9378 15.635 21.838 14.6651 21.4573C13.6953 21.0766 12.8664 20.4321 12.2832 19.6054C11.7 18.7787 11.3888 17.8067 11.3888 16.8125C11.3888 15.8183 11.7 14.8463 12.2832 14.0196C12.8664 13.1928 13.6953 12.5484 14.6651 12.1677C15.635 11.787 16.7022 11.6872 17.732 11.8808C18.7618 12.0744 19.7078 12.5528 20.4505 13.2555C21.4452 14.1996 22.0038 15.4788 22.0038 16.8125C22.0038 18.1462 21.4452 19.4254 20.4505 20.3695Z" fill="#0055EE"/>
</svg>
