<svg width="22" height="22" viewBox="0 0 22 22" fill="none" xmlns="http://www.w3.org/2000/svg">
<path d="M18.3332 11.0002V16.5002C18.3332 18.526 16.6923 20.1668 14.6665 20.1668H7.33317C5.30734 20.1668 3.6665 18.526 3.6665 16.5002V11.0002C3.6665 10.496 4.079 10.0835 4.58317 10.0835H6.389C6.89317 10.0835 7.30567 10.496 7.30567 11.0002V13.8785C7.30567 14.5568 7.6815 15.1802 8.27734 15.501C8.54317 15.6477 8.8365 15.721 9.139 15.721C9.48734 15.721 9.83567 15.6202 10.1382 15.4185L11.009 14.8502L11.8157 15.391C12.3748 15.7668 13.0898 15.8127 13.6857 15.4918C14.2907 15.171 14.6665 14.5568 14.6665 13.8693V11.0002C14.6665 10.496 15.079 10.0835 15.5832 10.0835H17.4165C17.9207 10.0835 18.3332 10.496 18.3332 11.0002Z" fill="#A3CCFE"/>
<path d="M19.7082 6.41683V7.3335C19.7082 8.34183 19.2223 9.16683 17.8748 9.16683H4.12484C2.72234 9.16683 2.2915 8.34183 2.2915 7.3335V6.41683C2.2915 5.4085 2.72234 4.5835 4.12484 4.5835H17.8748C19.2223 4.5835 19.7082 5.4085 19.7082 6.41683Z" fill="#A3CCFE"/>
<path d="M10.6699 4.58316H5.60988C5.29822 4.24399 5.30738 3.72149 5.63738 3.39149L6.93905 2.08982C7.27822 1.75066 7.83738 1.75066 8.17655 2.08982L10.6699 4.58316Z" fill="#A3CCFE"/>
<path d="M16.3808 4.58316H11.3208L13.8141 2.08982C14.1533 1.75066 14.7125 1.75066 15.0516 2.08982L16.3533 3.39149C16.6833 3.72149 16.6925 4.24399 16.3808 4.58316Z" fill="#A3CCFE"/>
<path d="M12.8057 10.0835C13.3098 10.0835 13.7223 10.496 13.7223 11.0002V13.8693C13.7223 14.6027 12.9065 15.0427 12.3015 14.6302L11.4765 14.0802C11.174 13.8785 10.7798 13.8785 10.4682 14.0802L9.60649 14.6485C9.00149 15.0518 8.19482 14.6118 8.19482 13.8877V11.0002C8.19482 10.496 8.60732 10.0835 9.11149 10.0835H12.8057Z" fill="#A3CCFE"/>
</svg>
