<svg width="38" height="38" viewBox="0 0 38 38" fill="none" xmlns="http://www.w3.org/2000/svg">
<rect x="0.5" y="0.5" width="37" height="37" rx="7.5" stroke="#E0E7F1"/>
<path d="M25.75 15V17.1C25.31 17.04 24.81 17.01 24.25 17V15C24.25 11.85 23.36 9.75 19 9.75C14.64 9.75 13.75 11.85 13.75 15V17C13.19 17.01 12.69 17.04 12.25 17.1V15C12.25 12.1 12.95 8.25 19 8.25C25.05 8.25 25.75 12.1 25.75 15Z" fill="#0055EE"/>
<path d="M25.75 17.1C25.31 17.04 24.81 17.01 24.25 17H13.75C13.19 17.01 12.69 17.04 12.25 17.1C9.7 17.41 9 18.66 9 22V24C9 28 10 29 14 29H24C28 29 29 28 29 24V22C29 18.66 28.3 17.41 25.75 17.1ZM15.71 23.71C15.52 23.89 15.26 24 15 24C14.87 24 14.74 23.97 14.62 23.92C14.49 23.87 14.39 23.8 14.29 23.71C14.11 23.52 14 23.26 14 23C14 22.87 14.03 22.74 14.08 22.62C14.13 22.5 14.2 22.39 14.29 22.29C14.39 22.2 14.49 22.13 14.62 22.08C14.99 21.92 15.43 22.01 15.71 22.29C15.8 22.39 15.87 22.5 15.92 22.62C15.97 22.74 16 22.87 16 23C16 23.26 15.89 23.52 15.71 23.71ZM19.92 23.38C19.87 23.5 19.8 23.61 19.71 23.71C19.52 23.89 19.26 24 19 24C18.73 24 18.48 23.89 18.29 23.71C18.2 23.61 18.13 23.5 18.08 23.38C18.03 23.26 18 23.13 18 23C18 22.73 18.11 22.48 18.29 22.29C18.66 21.92 19.33 21.92 19.71 22.29C19.89 22.48 20 22.73 20 23C20 23.13 19.97 23.26 19.92 23.38ZM23.71 23.71C23.52 23.89 23.26 24 23 24C22.74 24 22.48 23.89 22.29 23.71C22.11 23.52 22 23.27 22 23C22 22.73 22.11 22.48 22.29 22.29C22.67 21.92 23.34 21.92 23.71 22.29C23.75 22.34 23.79 22.39 23.83 22.45C23.87 22.5 23.9 22.56 23.92 22.62C23.95 22.68 23.97 22.74 23.98 22.8C23.99 22.87 24 22.94 24 23C24 23.26 23.89 23.52 23.71 23.71Z" fill="#0055EE"/>
</svg>
