<svg width="38" height="38" viewBox="0 0 38 38" fill="none" xmlns="http://www.w3.org/2000/svg">
<rect x="0.5" y="0.5" width="37" height="37" rx="7.5" stroke="#E0E7F1"/>
<path d="M14.6496 27.9098C14.6196 27.9098 14.5796 27.9298 14.5496 27.9298C12.6096 26.9698 11.0296 25.3798 10.0596 23.4398C10.0596 23.4098 10.0796 23.3698 10.0796 23.3398C11.2996 23.6998 12.5596 23.9698 13.8096 24.1798C14.0296 25.4398 14.2896 26.6898 14.6496 27.9098Z" fill="#0055EE"/>
<path d="M27.94 23.4498C26.95 25.4398 25.3 27.0498 23.29 28.0198C23.67 26.7498 23.99 25.4698 24.2 24.1798C25.46 23.9698 26.7 23.6998 27.92 23.3398C27.91 23.3798 27.94 23.4198 27.94 23.4498Z" fill="#0055EE"/>
<path d="M28.02 14.71C26.76 14.33 25.49 14.02 24.2 13.8C23.99 12.51 23.68 11.23 23.29 9.97998C25.36 10.97 27.03 12.64 28.02 14.71Z" fill="#0055EE"/>
<path d="M14.6505 10.0901C14.2905 11.3101 14.0305 12.5501 13.8205 13.8101C12.5305 14.0101 11.2505 14.3301 9.98047 14.7101C10.9505 12.7001 12.5605 11.0501 14.5505 10.0601C14.5805 10.0601 14.6205 10.0901 14.6505 10.0901Z" fill="#0055EE"/>
<path d="M22.4898 13.59C20.1698 13.33 17.8298 13.33 15.5098 13.59C15.7598 12.22 16.0798 10.85 16.5298 9.53C16.5498 9.45 16.5398 9.39 16.5498 9.31C17.3398 9.12 18.1498 9 18.9998 9C19.8398 9 20.6598 9.12 21.4398 9.31C21.4498 9.39 21.4498 9.45 21.4698 9.53C21.9198 10.86 22.2398 12.22 22.4898 13.59Z" fill="#0055EE"/>
<path d="M13.59 22.4898C12.21 22.2398 10.85 21.9198 9.53 21.4698C9.45 21.4498 9.39 21.4598 9.31 21.4498C9.12 20.6598 9 19.8498 9 18.9998C9 18.1598 9.12 17.3398 9.31 16.5598C9.39 16.5498 9.45 16.5498 9.53 16.5298C10.86 16.0898 12.21 15.7598 13.59 15.5098C13.34 17.8298 13.34 20.1698 13.59 22.4898Z" fill="#0055EE"/>
<path d="M29.0002 18.9998C29.0002 19.8498 28.8802 20.6598 28.6902 21.4498C28.6102 21.4598 28.5502 21.4498 28.4702 21.4698C27.1402 21.9098 25.7802 22.2398 24.4102 22.4898C24.6702 20.1698 24.6702 17.8298 24.4102 15.5098C25.7802 15.7598 27.1502 16.0798 28.4702 16.5298C28.5502 16.5498 28.6102 16.5598 28.6902 16.5598C28.8802 17.3498 29.0002 18.1598 29.0002 18.9998Z" fill="#0055EE"/>
<path d="M22.4898 24.4102C22.2398 25.7902 21.9198 27.1502 21.4698 28.4702C21.4498 28.5502 21.4498 28.6102 21.4398 28.6902C20.6598 28.8802 19.8398 29.0002 18.9998 29.0002C18.1498 29.0002 17.3398 28.8802 16.5498 28.6902C16.5398 28.6102 16.5498 28.5502 16.5298 28.4702C16.0898 27.1402 15.7598 25.7902 15.5098 24.4102C16.6698 24.5402 17.8298 24.6302 18.9998 24.6302C20.1698 24.6302 21.3398 24.5402 22.4898 24.4102Z" fill="#0055EE"/>
<path d="M22.7633 22.7633C20.2622 23.0789 17.7378 23.0789 15.2367 22.7633C14.9211 20.2622 14.9211 17.7378 15.2367 15.2367C17.7378 14.9211 20.2622 14.9211 22.7633 15.2367C23.0789 17.7378 23.0789 20.2622 22.7633 22.7633Z" fill="#0055EE"/>
</svg>
