<svg width="38" height="38" viewBox="0 0 38 38" fill="none" xmlns="http://www.w3.org/2000/svg">
<rect x="0.5" y="0.5" width="37" height="37" rx="7.5" stroke="#E0E7F1"/>
<path d="M14.63 10.5702C14.8094 10.4723 15 10.6229 15 10.8272V24.383C15 24.6063 14.8476 24.795 14.6502 24.8993C14.6435 24.9029 14.6367 24.9065 14.63 24.9102L12.28 26.2502C10.64 27.1902 9.29004 26.4102 9.29004 24.5102V14.7802C9.29004 14.1502 9.74004 13.3702 10.3 13.0502L14.63 10.5702Z" fill="#0055EE"/>
<path d="M21.7219 13.1024C21.8922 13.1868 22 13.3604 22 13.5505V26.7036C22 27.0721 21.615 27.314 21.283 27.1541L17.033 25.1065C16.86 25.0231 16.75 24.8481 16.75 24.656V11.4457C16.75 11.0749 17.1396 10.8331 17.4719 10.9976L21.7219 13.1024Z" fill="#0055EE"/>
<path d="M29 13.4901V23.2201C29 23.8501 28.55 24.6301 27.99 24.9501L24.4986 26.951C24.1653 27.1421 23.75 26.9014 23.75 26.5172V13.3304C23.75 13.1509 23.8462 12.9851 24.0021 12.8961L26.01 11.7501C27.65 10.8101 29 11.5901 29 13.4901Z" fill="#0055EE"/>
</svg>
