<svg width="25" height="25" viewBox="0 0 25 25" fill="none" xmlns="http://www.w3.org/2000/svg">
<path d="M12.5 15.625C14.2259 15.625 15.625 14.2259 15.625 12.5C15.625 10.7741 14.2259 9.375 12.5 9.375C10.7741 9.375 9.375 10.7741 9.375 12.5C9.375 14.2259 10.7741 15.625 12.5 15.625Z" fill="#00E6C5"/>
<path d="M17.7085 3.646H7.29183C4.16683 3.646 2.0835 5.2085 2.0835 8.85433V9.37516V15.6252V16.146C2.0835 19.7918 4.16683 21.3543 7.29183 21.3543H17.7085C20.8335 21.3543 22.9168 19.7918 22.9168 16.146V15.6252V9.37516V8.85433C22.9168 5.2085 20.8335 3.646 17.7085 3.646ZM7.29183 19.7918C7.29183 16.8543 6.34391 15.771 3.646 15.646V15.6252V9.37516V9.35433C6.34391 9.22933 7.29183 8.146 7.29183 5.2085H17.7085C17.7085 8.146 18.6564 9.22933 21.3543 9.35433V9.37516V15.6252V15.646C18.6564 15.771 17.7085 16.8543 17.7085 19.7918H7.29183Z" fill="#00E6C5"/>
</svg>
