<svg width="39" height="39" viewBox="0 0 39 39" fill="none" xmlns="http://www.w3.org/2000/svg">
<rect x="0.5" y="0.5" width="38" height="38" rx="7.5" stroke="#E0E7F1"/>
<path d="M22.8542 13.8228H13.0209C12.7292 13.8228 12.4584 13.8332 12.2084 13.8436C9.73962 13.9894 9.08337 14.8957 9.08337 17.7082V18.3123C9.08337 18.8853 9.55212 19.354 10.125 19.354H25.75C26.323 19.354 26.7917 18.8853 26.7917 18.3123V17.7082C26.7917 14.604 26 13.8228 22.8542 13.8228Z" fill="#0055EE"/>
<path d="M10.125 20.9165C9.55212 20.9165 9.08337 21.3853 9.08337 21.9582V24.9894C9.08337 28.0936 9.87504 28.8748 13.0209 28.8748H22.8542C25.948 28.8748 26.7605 28.1248 26.7917 25.1561V21.9582C26.7917 21.3853 26.323 20.9165 25.75 20.9165H10.125ZM14.25 26.3332H12.4688C12.0417 26.3332 11.6875 25.979 11.6875 25.5519C11.6875 25.1248 12.0417 24.7707 12.4688 24.7707H14.2605C14.6875 24.7707 15.0417 25.1248 15.0417 25.5519C15.0417 25.979 14.6875 26.3332 14.25 26.3332ZM20.073 26.3332H16.4896C16.0625 26.3332 15.7084 25.979 15.7084 25.5519C15.7084 25.1248 16.0625 24.7707 16.4896 24.7707H20.073C20.5 24.7707 20.8542 25.1248 20.8542 25.5519C20.8542 25.979 20.5105 26.3332 20.073 26.3332Z" fill="#0055EE"/>
<path d="M29.9167 20.8854V15.4271C29.9167 12.1667 28.0521 10.75 25.2396 10.75H15.9375C15.1458 10.75 14.4375 10.8646 13.8125 11.1042C13.3229 11.2813 12.8854 11.5417 12.5313 11.8854C12.3438 12.0625 12.4896 12.3542 12.7604 12.3542H24.0833C26.4271 12.3542 28.3229 14.25 28.3229 16.5938V24.0625C28.3229 24.3229 28.6042 24.4688 28.7917 24.2813C29.5104 23.5208 29.9167 22.4062 29.9167 20.8854Z" fill="#0055EE"/>
</svg>
