<svg width="39" height="39" viewBox="0 0 39 39" fill="none" xmlns="http://www.w3.org/2000/svg">
<rect x="0.5" y="0.5" width="38" height="38" rx="7.5" stroke="#E0E7F1"/>
<path d="M18.198 11.8334L13.5834 9.55212C11.0938 8.33337 9.05212 9.57295 9.05212 12.3021V27.7605C9.05212 28.948 10.0417 29.9167 11.25 29.9167H18.9792C19.5521 29.9167 20.0209 29.448 20.0209 28.875V14.7188C20.0209 13.625 19.198 12.323 18.198 11.8334ZM16.3438 21.323H12.7292C12.3021 21.323 11.948 20.9688 11.948 20.5417C11.948 20.1146 12.3021 19.7605 12.7292 19.7605H16.3438C16.7709 19.7605 17.125 20.1146 17.125 20.5417C17.125 20.9688 16.7813 21.323 16.3438 21.323ZM16.3438 17.1563H12.7292C12.3021 17.1563 11.948 16.8021 11.948 16.375C11.948 15.948 12.3021 15.5938 12.7292 15.5938H16.3438C16.7709 15.5938 17.125 15.948 17.125 16.375C17.125 16.8021 16.7813 17.1563 16.3438 17.1563Z" fill="#0055EE"/>
<path d="M29.9167 25.7915V27.3123C29.9167 28.7498 28.75 29.9165 27.3125 29.9165H22.5938C22.0313 29.9165 21.5834 29.4686 21.5834 28.9061V26.6561C22.698 26.7915 23.875 26.4686 24.7188 25.7915C25.4271 26.3644 26.3334 26.7082 27.323 26.7082C28.2917 26.7082 29.198 26.3644 29.9167 25.7915Z" fill="#0055EE"/>
<path d="M29.9167 22.677V22.6874C29.8334 24.052 28.7188 25.1457 27.323 25.1457C25.875 25.1457 24.7188 23.9686 24.7188 22.5415C24.7188 24.1353 23.25 25.4165 21.5834 25.0936V19.4999C21.5834 18.8332 22.198 18.3332 22.8542 18.479L24.7188 18.8957L25.2188 19.0103L27.3438 19.4895C27.8542 19.5936 28.323 19.7707 28.7292 20.0311C28.7292 20.0415 28.7396 20.0415 28.7396 20.0415C28.8438 20.1145 28.948 20.1978 29.0417 20.2915C29.5209 20.7707 29.8334 21.4686 29.9063 22.4895C29.9063 22.552 29.9167 22.6145 29.9167 22.677Z" fill="#0055EE"/>
</svg>
