<svg width="21" height="25" viewBox="0 0 21 25" fill="none" xmlns="http://www.w3.org/2000/svg">
<path d="M7.9438 5.17773C7.7722 5.17772 7.60624 5.23896 7.47577 5.35042C7.34531 5.46188 7.25891 5.61625 7.23212 5.78574L6.04932 13.2857L4.96257 20.1773L4.96191 20.1831L4.96323 20.1773L6.04997 13.2857C6.10522 12.9355 6.40679 12.6777 6.76126 12.6777H10.2263C13.7136 12.6777 16.6735 10.1335 17.214 6.68587C17.2552 6.42393 17.2773 6.16448 17.2822 5.90844V5.90805H17.2818C16.3956 5.44309 15.3549 5.17773 14.2147 5.17773H7.9438Z" fill="#001C64"/>
<path d="M17.2816 5.9082C17.2767 6.16424 17.2544 6.42395 17.2133 6.68589C16.6728 10.1335 13.7129 12.6777 10.2257 12.6777H6.76059C6.40613 12.6777 6.10456 12.9355 6.04931 13.2858L4.96256 20.1773L4.28055 24.5011C4.26741 24.5846 4.27252 24.67 4.29553 24.7513C4.31854 24.8327 4.3589 24.9081 4.41384 24.9724C4.46877 25.0366 4.53698 25.0882 4.61376 25.1236C4.69055 25.159 4.77408 25.1773 4.85863 25.1773H8.61978C8.79138 25.1773 8.95734 25.1161 9.0878 25.0047C9.21827 24.8932 9.30467 24.7388 9.33146 24.5693L10.3223 18.2857C10.3778 17.9355 10.6795 17.6773 11.0339 17.6773H13.2486C16.7359 17.6773 19.6954 15.1333 20.2359 11.6859C20.6196 9.23851 19.388 7.01214 17.2816 5.9082Z" fill="#0070E0"/>
<path d="M3.67016 0.177734C3.49851 0.17774 3.33249 0.239031 3.20202 0.350571C3.07154 0.462111 2.98518 0.616571 2.95848 0.786135L0.00716982 19.5011C-0.00602975 19.5846 -0.00096118 19.67 0.0220201 19.7514C0.0450014 19.8328 0.0853512 19.9083 0.140294 19.9726C0.195236 20.0369 0.263468 20.0885 0.340284 20.124C0.417099 20.1594 0.500673 20.1777 0.585257 20.1777H4.96202L6.04877 13.2861L7.23158 5.78613C7.25836 5.61664 7.34476 5.46227 7.47523 5.35081C7.60569 5.23935 7.77166 5.17811 7.94325 5.17812H14.2138C15.3544 5.17812 16.3951 5.44387 17.2814 5.90817C17.3418 2.76947 14.7519 0.177734 11.1906 0.177734H3.67016Z" fill="#003087"/>
</svg>
