<svg width="40" height="40" viewBox="0 0 40 40" fill="none" xmlns="http://www.w3.org/2000/svg">
<rect x="0.5" y="0.5" width="39" height="39" rx="9.5" fill="#E3EFFF"/>
<rect x="0.5" y="0.5" width="39" height="39" rx="9.5" stroke="#006FFF"/>
<circle cx="20" cy="20" r="14" fill="#006FFF"/>
<path d="M27.5 19.4375H25.97C25.7 16.58 23.42 14.2925 20.5625 14.03V12.5C20.5625 12.1925 20.3075 11.9375 20 11.9375C19.6925 11.9375 19.4375 12.1925 19.4375 12.5V14.03C16.58 14.3 14.2925 16.58 14.03 19.4375H12.5C12.1925 19.4375 11.9375 19.6925 11.9375 20C11.9375 20.3075 12.1925 20.5625 12.5 20.5625H14.03C14.3 23.42 16.58 25.7075 19.4375 25.97V27.5C19.4375 27.8075 19.6925 28.0625 20 28.0625C20.3075 28.0625 20.5625 27.8075 20.5625 27.5V25.97C23.42 25.7 25.7075 23.42 25.97 20.5625H27.5C27.8075 20.5625 28.0625 20.3075 28.0625 20C28.0625 19.6925 27.8075 19.4375 27.5 19.4375ZM20 22.34C18.71 22.34 17.66 21.29 17.66 20C17.66 18.71 18.71 17.66 20 17.66C21.29 17.66 22.34 18.71 22.34 20C22.34 21.29 21.29 22.34 20 22.34Z" fill="white"/>
</svg>
