<svg width="30" height="30" viewBox="0 0 30 30" fill="none" xmlns="http://www.w3.org/2000/svg">
<rect x="0.5" y="0.5" width="29" height="29" rx="7.5" stroke="#E0E7F1"/>
<path d="M21.4901 18.4099C20.9493 15.174 17.8418 12.5432 14.5601 12.5432C10.9943 12.5432 7.85926 15.4307 7.55676 18.9874C7.43759 20.3624 7.87759 21.664 8.78509 22.6449C9.68342 23.6257 10.9484 24.1665 12.3234 24.1665H16.6134C18.1626 24.1665 19.5193 23.5615 20.4451 22.4707C21.3709 21.3799 21.7376 19.9315 21.4901 18.4099Z" fill="#0055EE"/>
<path d="M13.4234 11.2049C14.9067 11.2049 16.1092 10.0024 16.1092 8.51909C16.1092 7.03574 14.9067 5.83325 13.4234 5.83325C11.94 5.83325 10.7375 7.03574 10.7375 8.51909C10.7375 10.0024 11.94 11.2049 13.4234 11.2049Z" fill="#0055EE"/>
<path d="M19.5284 12.2775C20.7637 12.2775 21.7651 11.2761 21.7651 10.0409C21.7651 8.80559 20.7637 7.8042 19.5284 7.8042C18.2931 7.8042 17.2917 8.80559 17.2917 10.0409C17.2917 11.2761 18.2931 12.2775 19.5284 12.2775Z" fill="#0055EE"/>
<path d="M22.8375 15.8526C23.8248 15.8526 24.625 15.0523 24.625 14.0651C24.625 13.0779 23.8248 12.2776 22.8375 12.2776C21.8503 12.2776 21.05 13.0779 21.05 14.0651C21.05 15.0523 21.8503 15.8526 22.8375 15.8526Z" fill="#0055EE"/>
<path d="M7.61167 14.0649C8.84694 14.0649 9.84833 13.0635 9.84833 11.8282C9.84833 10.5929 8.84694 9.59155 7.61167 9.59155C6.37639 9.59155 5.375 10.5929 5.375 11.8282C5.375 13.0635 6.37639 14.0649 7.61167 14.0649Z" fill="#0055EE"/>
</svg>
