<svg width="36" height="36" viewBox="0 0 36 36" fill="none" xmlns="http://www.w3.org/2000/svg">
<rect x="0.5" y="0.5" width="35" height="35" rx="7.5" stroke="#E0E7F1"/>
<path d="M18 18.0002C20.5313 18.0002 22.5833 15.9481 22.5833 13.4168C22.5833 10.8855 20.5313 8.8335 18 8.8335C15.4687 8.8335 13.4166 10.8855 13.4166 13.4168C13.4166 15.9481 15.4687 18.0002 18 18.0002Z" fill="#0055EE"/>
<path d="M18 20.2915C13.4075 20.2915 9.66748 23.3715 9.66748 27.1665C9.66748 27.4232 9.86915 27.6248 10.1258 27.6248H25.8741C26.1308 27.6248 26.3325 27.4232 26.3325 27.1665C26.3325 23.3715 22.5925 20.2915 18 20.2915Z" fill="#0055EE"/>
</svg>
