<svg width="36" height="36" viewBox="0 0 36 36" fill="none" xmlns="http://www.w3.org/2000/svg">
<rect width="36" height="36" rx="10" fill="white"/>
<path d="M28.3941 12.9813C28.297 12.9813 28.1973 12.9952 28.0978 13.0229L26.9718 13.3347L25.8025 10.4712C25.4713 9.65994 24.4921 9 23.6198 9H12.6769C11.8046 9 10.8254 9.65994 10.4942 10.4712L9.32649 13.3308L8.21461 13.0229C8.1152 12.9953 8.0154 12.9813 7.91836 12.9813C7.38628 12.9813 7 13.3899 7 13.9531V14.6205C7 15.2779 7.53189 15.8126 8.18578 15.8126H8.31308L8.1244 16.2748C7.81667 17.0286 7.56633 18.3045 7.56633 19.1192V24.8079C7.56633 25.4653 8.09831 26 8.7521 26H10.3008C10.9547 26 11.4866 25.4653 11.4866 24.8079V23.3872H24.8103V24.8079C24.8103 25.4653 25.3422 26 25.9961 26H27.5447C28.1986 26 28.7305 25.4653 28.7305 24.8079V19.1192C28.7305 18.3046 28.4802 17.0286 28.1724 16.2748L27.9837 15.8126H28.1267C28.7805 15.8126 29.3125 15.2779 29.3125 14.6205V13.9531C29.3125 13.3899 28.9263 12.9813 28.3941 12.9813ZM10.1768 15.1651L11.9455 10.8338C12.1437 10.3486 12.7327 9.95157 13.2544 9.95157H23.0425C23.5642 9.95157 24.1532 10.3486 24.3513 10.8338L26.12 15.1651C26.3182 15.6503 26.0534 16.0473 25.5317 16.0473H10.7653C10.2435 16.0473 9.97876 15.6503 10.1768 15.1651ZM14.1253 20.6435C14.1253 20.9058 13.9118 21.1204 13.651 21.1204H10.291C10.0301 21.1204 9.81664 20.9058 9.81664 20.6435V19.0224C9.81664 18.7601 10.0301 18.5456 10.291 18.5456H13.651C13.9118 18.5456 14.1253 18.7601 14.1253 19.0224V20.6435ZM26.4484 20.6435C26.4484 20.9058 26.235 21.1204 25.9741 21.1204H22.6142C22.3533 21.1204 22.1399 20.9058 22.1399 20.6435V19.0224C22.1399 18.7601 22.3533 18.5456 22.6142 18.5456H25.9741C26.235 18.5456 26.4484 18.7601 26.4484 19.0224V20.6435Z" fill="#0055EE"/>
</svg>
