<svg width="22" height="22" viewBox="0 0 22 22" fill="none" xmlns="http://www.w3.org/2000/svg">
<path d="M19.1675 10.1932V6.16905C19.1675 5.41738 18.5992 4.56488 17.8934 4.28071L12.7875 2.19071C11.6417 1.72321 10.3492 1.72321 9.20335 2.19071L4.09752 4.28071C3.40085 4.56488 2.83252 5.41738 2.83252 6.16905V10.1932C2.83252 14.6757 6.08669 18.874 10.5325 20.1024C10.835 20.1849 11.165 20.1849 11.4675 20.1024C15.9134 18.874 19.1675 14.6757 19.1675 10.1932ZM11.6875 11.7974V14.2082C11.6875 14.584 11.3759 14.8957 11 14.8957C10.6242 14.8957 10.3125 14.584 10.3125 14.2082V11.7974C9.38669 11.504 8.70835 10.6424 8.70835 9.62488C8.70835 8.35988 9.73502 7.33321 11 7.33321C12.265 7.33321 13.2917 8.35988 13.2917 9.62488C13.2917 10.6515 12.6134 11.504 11.6875 11.7974Z" fill="#0055EE"/>
</svg>
