<svg width="25" height="25" viewBox="0 0 25 25" fill="none" xmlns="http://www.w3.org/2000/svg">
<path d="M23.4375 12.5C23.4375 15.4008 22.2852 18.1828 20.234 20.234C18.1828 22.2852 15.4008 23.4375 12.5 23.4375C9.59919 23.4375 6.8172 22.2852 4.76602 20.234C2.71484 18.1828 1.5625 15.4008 1.5625 12.5C1.5625 12.2928 1.64481 12.0941 1.79132 11.9476C1.93784 11.8011 2.13655 11.7188 2.34375 11.7188C2.55095 11.7188 2.74966 11.8011 2.89618 11.9476C3.04269 12.0941 3.125 12.2928 3.125 12.5C3.12187 14.5922 3.81766 16.6256 5.10192 18.2773C6.38618 19.929 8.18534 21.1044 10.2138 21.617C12.2423 22.1296 14.3838 21.9499 16.2986 21.1066C18.2133 20.2633 19.7915 18.8045 20.7827 16.962C21.7739 15.1194 22.1212 12.9986 21.7696 10.9361C21.4179 8.87363 20.3875 6.98769 18.8418 5.57762C17.2961 4.16756 15.3237 3.31418 13.2377 3.15291C11.1517 2.99165 9.0716 3.53176 7.32755 4.68751H7.8125C8.0197 4.68751 8.21841 4.76982 8.36493 4.91633C8.51144 5.06284 8.59375 5.26156 8.59375 5.46876C8.59375 5.67596 8.51144 5.87467 8.36493 6.02118C8.21841 6.1677 8.0197 6.25001 7.8125 6.25001H5.46875C5.36614 6.25006 5.26452 6.2299 5.16971 6.19066C5.0749 6.15142 4.98875 6.09387 4.91619 6.02131C4.84363 5.94876 4.78609 5.86261 4.74685 5.7678C4.70761 5.67298 4.68744 5.57137 4.6875 5.46876V3.12501C4.6875 2.91781 4.76981 2.71909 4.91632 2.57258C5.06284 2.42607 5.26155 2.34376 5.46875 2.34376C5.67595 2.34376 5.87466 2.42607 6.02118 2.57258C6.16769 2.71909 6.25 2.91781 6.25 3.12501V3.52651C7.88967 2.38368 9.8112 1.71209 11.8058 1.58473C13.8004 1.45737 15.7917 1.8791 17.5634 2.8041C19.3351 3.7291 20.8194 5.12199 21.8551 6.8314C22.8907 8.54081 23.438 10.5014 23.4375 12.5ZM19.5312 12.5C19.5312 13.8907 19.1189 15.2501 18.3463 16.4064C17.5737 17.5626 16.4755 18.4639 15.1907 18.996C13.9059 19.5282 12.4922 19.6675 11.1283 19.3962C9.76434 19.1249 8.51149 18.4552 7.52816 17.4718C6.54482 16.4885 5.87516 15.2357 5.60385 13.8717C5.33255 12.5078 5.47179 11.0941 6.00397 9.80926C6.53615 8.52447 7.43736 7.42634 8.59365 6.65374C9.74993 5.88113 11.1094 5.46876 12.5 5.46876C14.3642 5.47079 16.1514 6.21223 17.4696 7.53041C18.7878 8.84858 19.5292 10.6358 19.5312 12.5ZM15.2771 13.4125L13.2812 12.0819V8.59376C13.2812 8.38656 13.1989 8.18784 13.0524 8.04133C12.9059 7.89482 12.7072 7.81251 12.5 7.81251C12.2928 7.81251 12.0941 7.89482 11.9476 8.04133C11.8011 8.18784 11.7188 8.38656 11.7188 8.59376V12.5C11.7188 12.6286 11.7505 12.7552 11.8112 12.8686C11.8719 12.982 11.9597 13.0787 12.0666 13.15L14.4104 14.7125C14.5828 14.825 14.7927 14.865 14.9943 14.8236C15.196 14.7823 15.3732 14.663 15.4874 14.4917C15.6017 14.3204 15.6436 14.1109 15.6042 13.9088C15.5648 13.7067 15.4473 13.5284 15.2771 13.4125Z" fill="#5B758F"/>
</svg>
