<svg width="24" height="24" viewBox="0 0 24 24" fill="none" xmlns="http://www.w3.org/2000/svg">
<path d="M23.0122 7.25972C22.9077 7.25972 22.8005 7.27461 22.6934 7.30421L21.4823 7.63786L20.2245 4.57412C19.8683 3.70609 18.815 3 17.8768 3H6.10627C5.16794 3 4.11472 3.70609 3.75851 4.57412L2.50244 7.63368L1.30648 7.30421C1.19954 7.27472 1.0922 7.25972 0.987815 7.25972C0.415492 7.25972 0 7.69694 0 8.29947V9.01362C0 9.71696 0.572119 10.2891 1.27546 10.2891H1.41239L1.20944 10.7835C0.878432 11.59 0.609158 12.9552 0.609158 13.8269V19.9135C0.609158 20.6168 1.18138 21.1889 1.88461 21.1889H3.55046C4.2538 21.1889 4.82592 20.6168 4.82592 19.9135V18.3934H19.1573V19.9135C19.1573 20.6168 19.7295 21.1889 20.4328 21.1889H22.0985C22.8019 21.1889 23.374 20.6168 23.374 19.9135V13.8269C23.374 12.9553 23.1047 11.59 22.7736 10.7835L22.5707 10.2891H22.7245C23.4278 10.2891 24 9.71696 24 9.01362V8.29947C24 7.69694 23.5846 7.25972 23.0122 7.25972ZM3.4171 9.59625L5.31957 4.96206C5.53272 4.4429 6.16627 4.01812 6.72747 4.01812H17.2558C17.817 4.01812 18.4505 4.4429 18.6636 4.96206L20.5661 9.59625C20.7792 10.1154 20.4944 10.5402 19.9332 10.5402H4.05003C3.48883 10.5402 3.20405 10.1154 3.4171 9.59625ZM7.66416 15.4578C7.66416 15.7384 7.43458 15.968 7.15398 15.968H3.53985C3.25925 15.968 3.02967 15.7384 3.02967 15.4578V13.7233C3.02967 13.4427 3.25925 13.2131 3.53985 13.2131H7.15398C7.43458 13.2131 7.66416 13.4427 7.66416 13.7233V15.4578ZM20.9193 15.4578C20.9193 15.7384 20.6897 15.968 20.4091 15.968H16.7951C16.5145 15.968 16.2849 15.7384 16.2849 15.4578V13.7233C16.2849 13.4427 16.5145 13.2131 16.7951 13.2131H20.4091C20.6897 13.2131 20.9193 13.4427 20.9193 13.7233V15.4578Z" fill="#91A3BA"/>
</svg>
