<svg width="18" height="20" viewBox="0 0 18 20" fill="none" xmlns="http://www.w3.org/2000/svg">
<path d="M15.3617 3.9684L10.6226 1.22757C9.71507 0.705068 8.29424 0.705068 7.38674 1.22757L2.60174 3.98674C0.704238 5.27007 0.594238 5.46257 0.594238 7.50673V12.4842C0.594238 14.5284 0.704238 14.7301 2.6384 16.0317L7.37757 18.7726C7.8359 19.0384 8.42257 19.1667 9.00007 19.1667C9.57757 19.1667 10.1642 19.0384 10.6134 18.7726L15.3984 16.0134C17.2959 14.7301 17.4059 14.5376 17.4059 12.4934V7.50673C17.4059 5.46257 17.2959 5.27007 15.3617 3.9684ZM9.00007 12.9792C7.35924 12.9792 6.02091 11.6409 6.02091 10.0001C6.02091 8.35923 7.35924 7.0209 9.00007 7.0209C10.6409 7.0209 11.9792 8.35923 11.9792 10.0001C11.9792 11.6409 10.6409 12.9792 9.00007 12.9792Z" fill="#0055EE"/>
</svg>
