<svg width="14" height="11" viewBox="0 0 14 11" fill="none" xmlns="http://www.w3.org/2000/svg">
<path d="M13.7862 5.00549L8.67576 0.19299C8.53807 0.067756 8.35365 -0.00154042 8.16223 2.59892e-05C7.97081 0.0015924 7.7877 0.0738962 7.65233 0.201364C7.51697 0.328832 7.44019 0.501266 7.43853 0.681526C7.43687 0.861786 7.51045 1.03545 7.64344 1.16511L11.5077 4.80405H0.730069C0.536443 4.80405 0.350747 4.87649 0.213832 5.00542C0.0769179 5.13435 0 5.30922 0 5.49155C0 5.67389 0.0769179 5.84876 0.213832 5.97769C0.350747 6.10662 0.536443 6.17905 0.730069 6.17905H11.5077L7.64344 9.81799C7.57371 9.88141 7.51809 9.95727 7.47983 10.0411C7.44157 10.125 7.42143 10.2152 7.42059 10.3065C7.41974 10.3978 7.43822 10.4883 7.47493 10.5728C7.51163 10.6573 7.56584 10.7341 7.63439 10.7986C7.70294 10.8632 7.78445 10.9142 7.87418 10.9488C7.9639 10.9834 8.06003 11.0008 8.15697 11C8.25391 10.9992 8.34971 10.9802 8.43878 10.9442C8.52785 10.9082 8.60841 10.8558 8.67576 10.7901L13.7862 5.97761C13.9231 5.84869 14 5.67385 14 5.49155C14 5.30925 13.9231 5.13441 13.7862 5.00549Z" fill="white"/>
</svg>
