<svg width="38" height="38" viewBox="0 0 38 38" fill="none" xmlns="http://www.w3.org/2000/svg">
<rect x="0.5" y="0.5" width="37" height="37" rx="7.5" fill="white"/>
<rect x="0.5" y="0.5" width="37" height="37" rx="7.5" stroke="#E5EEFF"/>
<path d="M23.19 9H14.81C11.17 9 9 11.17 9 14.81V23.18C9 26.83 11.17 29 14.81 29H23.18C26.82 29 28.99 26.83 28.99 23.19V14.81C29 11.17 26.83 9 23.19 9ZM25.53 19.53L21.24 23.82C21.09 23.97 20.9 24.04 20.71 24.04C20.52 24.04 20.33 23.97 20.18 23.82C19.89 23.53 19.89 23.05 20.18 22.76L23.19 19.75H13C12.59 19.75 12.25 19.41 12.25 19C12.25 18.59 12.59 18.25 13 18.25H23.19L20.18 15.24C19.89 14.95 19.89 14.47 20.18 14.18C20.47 13.89 20.95 13.89 21.24 14.18L25.53 18.47C25.67 18.61 25.75 18.8 25.75 19C25.75 19.2 25.67 19.39 25.53 19.53Z" fill="#006FFF"/>
</svg>
