<svg width="25" height="25" viewBox="0 0 25 25" fill="none" xmlns="http://www.w3.org/2000/svg">
<path d="M20.9375 9.60432C19.0521 9.60432 18.2812 8.27099 19.2187 6.63557C19.7604 5.68766 19.4375 4.47932 18.4896 3.93766L16.6875 2.90641C15.8646 2.41682 14.8021 2.70849 14.3125 3.53141L14.1979 3.72932C13.2604 5.36474 11.7187 5.36474 10.7708 3.72932L10.6562 3.53141C10.1875 2.70849 9.12498 2.41682 8.30206 2.90641L6.49998 3.93766C5.55206 4.47932 5.22915 5.69807 5.77081 6.64599C6.71873 8.27099 5.9479 9.60432 4.06248 9.60432C2.97915 9.60432 2.08331 10.4897 2.08331 11.5835V13.4168C2.08331 14.5002 2.96873 15.396 4.06248 15.396C5.9479 15.396 6.71873 16.7293 5.77081 18.3647C5.22915 19.3127 5.55206 20.521 6.49998 21.0627L8.30206 22.0939C9.12498 22.5835 10.1875 22.2918 10.6771 21.4689L10.7916 21.271C11.7291 19.6356 13.2708 19.6356 14.2187 21.271L14.3333 21.4689C14.8229 22.2918 15.8854 22.5835 16.7083 22.0939L18.5104 21.0627C19.4583 20.521 19.7812 19.3022 19.2396 18.3647C18.2916 16.7293 19.0625 15.396 20.9479 15.396C22.0312 15.396 22.9271 14.5106 22.9271 13.4168V11.5835C22.9166 10.5002 22.0312 9.60432 20.9375 9.60432ZM12.5 15.8856C10.6354 15.8856 9.11456 14.3647 9.11456 12.5002C9.11456 10.6356 10.6354 9.11474 12.5 9.11474C14.3646 9.11474 15.8854 10.6356 15.8854 12.5002C15.8854 14.3647 14.3646 15.8856 12.5 15.8856Z" fill="#5B758F"/>
</svg>
