<svg width="25" height="25" viewBox="0 0 25 25" fill="none" xmlns="http://www.w3.org/2000/svg">
<g clip-path="url(#clip0_59_1950)">
<path d="M0 4C0 1.79086 1.79086 0 4 0H21C23.2091 0 25 1.79086 25 4V21C25 23.2091 23.2091 25 21 25H4C1.79086 25 0 23.2091 0 21V4Z" fill="url(#paint0_linear_59_1950)"/>
<g filter="url(#filter0_d_59_1950)">
<path d="M13.6414 10.8399C12.379 10.3731 11.6872 10.0099 11.6872 9.43926C11.6872 8.95488 12.085 8.67832 12.794 8.67832C14.091 8.67832 15.4226 9.17988 16.3392 9.62939L16.8579 6.43018C16.1315 6.08428 14.6443 5.51367 12.5864 5.51367C11.1339 5.51367 9.92334 5.89404 9.05869 6.60312C8.15928 7.34668 7.69248 8.41895 7.69248 9.71592C7.69248 12.0678 9.12783 13.0708 11.4624 13.9182C12.9669 14.4543 13.4685 14.8348 13.4685 15.4227C13.4685 15.9934 12.9841 16.3219 12.1022 16.3219C11.0127 16.3219 9.21436 15.7858 8.03828 15.0941L7.51953 18.3279C8.52246 18.8986 10.3901 19.4865 12.3271 19.4865C13.8662 19.4865 15.1459 19.1234 16.0105 18.4317C16.9789 17.6708 17.4805 16.5468 17.4805 15.0941C17.4805 12.6903 16.0105 11.6873 13.6413 10.84L13.6414 10.8399Z" fill="white"/>
</g>
</g>
<defs>
<filter id="filter0_d_59_1950" x="-41.3086" y="-43.3145" width="146.68" height="150.691" filterUnits="userSpaceOnUse" color-interpolation-filters="sRGB">
<feFlood flood-opacity="0" result="BackgroundImageFix"/>
<feColorMatrix in="SourceAlpha" type="matrix" values="0 0 0 0 0 0 0 0 0 0 0 0 0 0 0 0 0 0 127 0" result="hardAlpha"/>
<feOffset dx="19.5312" dy="19.5312"/>
<feGaussianBlur stdDeviation="34.1797"/>
<feColorMatrix type="matrix" values="0 0 0 0 0 0 0 0 0 0 0 0 0 0 0 0 0 0 0.185125 0"/>
<feBlend mode="normal" in2="BackgroundImageFix" result="effect1_dropShadow_59_1950"/>
<feBlend mode="normal" in="SourceGraphic" in2="effect1_dropShadow_59_1950" result="shape"/>
</filter>
<linearGradient id="paint0_linear_59_1950" x1="2500" y1="1458.9" x2="0" y2="0" gradientUnits="userSpaceOnUse">
<stop stop-color="#2697D4"/>
<stop offset="0.5" stop-color="#207BCB"/>
<stop offset="1" stop-color="#2285CE"/>
</linearGradient>
<clipPath id="clip0_59_1950">
<rect width="25" height="25" fill="white"/>
</clipPath>
</defs>
</svg>
