<svg width="22" height="16" viewBox="0 0 22 16" fill="none" xmlns="http://www.w3.org/2000/svg">
<path d="M20.6357 3.74709C20.5442 3.74709 20.4504 3.76019 20.3567 3.78622L19.297 4.07973L18.1965 1.38468C17.8848 0.621119 16.9631 0 16.1422 0H5.84299C5.02195 0 4.10038 0.621119 3.7887 1.38468L2.68964 4.07605L1.64317 3.78622C1.5496 3.76028 1.45567 3.74709 1.36434 3.74709C0.863556 3.74709 0.5 4.1317 0.5 4.66171V5.28992C0.5 5.90862 1.0006 6.41188 1.61602 6.41188H1.73584L1.55826 6.84685C1.26863 7.55629 1.03301 8.75715 1.03301 9.52394V14.878C1.03301 15.4967 1.53371 16 2.14904 16H3.60665C4.22207 16 4.72268 15.4967 4.72268 14.878V13.5409H17.2627V14.878C17.2627 15.4967 17.7633 16 18.3787 16H19.8362C20.4517 16 20.9523 15.4967 20.9523 14.878V9.52394C20.9523 8.75724 20.7166 7.55629 20.4269 6.84685L20.2493 6.41188H20.384C20.9993 6.41188 21.5 5.90862 21.5 5.28992V4.66171C21.5 4.1317 21.1365 3.74709 20.6357 3.74709ZM3.48996 5.80243L5.15462 1.72594C5.34113 1.26925 5.89548 0.895596 6.38654 0.895596H15.5988C16.0899 0.895596 16.6442 1.26925 16.8306 1.72594L18.4953 5.80243C18.6818 6.25912 18.4326 6.63278 17.9416 6.63278H4.04378C3.55273 6.63278 3.30354 6.25912 3.48996 5.80243ZM7.20614 10.9586C7.20614 11.2055 7.00526 11.4074 6.75973 11.4074H3.59737C3.35184 11.4074 3.15096 11.2055 3.15096 10.9586V9.43284C3.15096 9.18601 3.35184 8.98405 3.59737 8.98405H6.75973C7.00526 8.98405 7.20614 9.18601 7.20614 9.43284V10.9586ZM18.8044 10.9586C18.8044 11.2055 18.6035 11.4074 18.358 11.4074H15.1957C14.9502 11.4074 14.7493 11.2055 14.7493 10.9586V9.43284C14.7493 9.18601 14.9502 8.98405 15.1957 8.98405H18.358C18.6035 8.98405 18.8044 9.18601 18.8044 9.43284V10.9586Z" fill="#A3CCFE"/>
</svg>
