<svg width="25" height="25" viewBox="0 0 25 25" fill="none" xmlns="http://www.w3.org/2000/svg">
<g clip-path="url(#clip0_2232_746)">
<path d="M18.5958 11.6089C16.7445 11.6089 15.0303 10.6841 14.0098 9.13522C13.7461 8.73689 13.5367 8.30754 13.3877 7.86017C13.2853 7.55775 13.2079 7.23202 13.1583 6.8945C13.1223 6.63704 13.104 6.37717 13.104 6.11947C13.104 3.08881 15.5676 0.625 18.5958 0.625C21.6241 0.625 24.0879 3.08881 24.0879 6.11706C24.0879 8.41284 22.6395 10.4862 20.4836 11.2762C20.3779 11.3149 20.2687 11.3512 20.1572 11.382C19.7389 11.5091 19.2884 11.5848 18.8302 11.6036C18.7497 11.6065 18.6728 11.6089 18.5958 11.6089ZM18.5958 1.60966C16.1106 1.60966 14.0887 3.63162 14.0887 6.11706C14.0887 6.33125 14.1036 6.54497 14.1331 6.75483C14.1735 7.0308 14.2367 7.29812 14.3211 7.54645C14.4435 7.9145 14.6149 8.26547 14.8315 8.59265C15.6697 9.86506 17.0768 10.6242 18.5958 10.6242C18.6617 10.6242 18.7276 10.6218 18.7934 10.6197C19.1648 10.6045 19.5326 10.5427 19.8831 10.4362C19.9803 10.4093 20.0634 10.3817 20.1442 10.3519C21.9142 9.70327 23.1032 8.00152 23.1032 6.11706C23.1032 3.63162 21.0813 1.60966 18.5958 1.60966Z" fill="#5B758F"/>
<path fill-rule="evenodd" clip-rule="evenodd" d="M24.1665 13.9325C24.068 13.4155 23.5757 13.1202 23.0588 13.2186L21.3356 13.6125L20.026 10.9071C19.6371 11.0253 19.2309 11.0942 18.81 11.1114C19.1201 11.7712 19.4131 12.4776 19.6445 13.0389C19.8168 13.4475 19.4894 13.8833 19.0512 13.8463C14.6843 13.4943 10.3296 13.4943 5.96019 13.8463C5.52202 13.8833 5.19708 13.4475 5.36694 13.0389C5.97249 11.5767 6.97438 9.13966 7.7178 9.08058C9.96036 8.83935 12.1832 8.76795 14.4209 8.86396C14.1845 8.50703 13.9925 8.11807 13.8547 7.70453C11.7032 7.67497 9.55173 7.71685 7.37317 7.82515C6.73068 7.97285 6.16451 8.3667 5.81987 9.12984L3.65363 13.6125L1.93047 13.2186C1.43815 13.1202 0.918742 13.4155 0.844896 13.9325C0.697188 14.4002 0.992588 14.9172 1.51199 15.0402L2.74281 15.311L2.47204 15.828C2.4228 18.3659 2.39819 20.8522 2.39819 23.3901C2.39819 23.9317 2.84129 24.3748 3.38285 24.3748H5.99219C6.53375 24.3748 6.97685 23.9317 6.97685 23.3901V22.0338H18.0099V23.3901C18.0099 23.9317 18.453 24.3748 18.9946 24.3748H21.6064C22.148 24.3748 22.5911 23.9317 22.5911 23.3901C22.5911 20.8522 22.5418 18.3659 22.5172 15.828L22.2464 15.311L23.5019 15.0402C23.9696 14.9172 24.2896 14.4002 24.1665 13.9325ZM8.65322 18.0705C8.65322 18.4398 8.35782 18.7351 7.98858 18.7351H4.46597C4.07211 18.7351 3.70286 18.3905 3.70286 17.972V17.2335C3.70286 16.8397 4.02287 16.4704 4.44135 16.4951C5.99219 16.6674 7.91473 17.0366 8.65322 17.6767V18.0705ZM14.5784 20.8694C14.5784 21.0565 14.4282 21.2066 14.2412 21.2066H10.7481C10.561 21.2066 10.4108 21.0565 10.4108 20.8694V20.2688C10.4108 20.0817 10.561 19.9315 10.7481 19.9315H14.2412C14.4282 19.9315 14.5784 20.0817 14.5784 20.2688V20.8694ZM21.2371 17.972C21.2371 18.3905 20.8925 18.7351 20.4987 18.7351H17.0007C16.6314 18.7351 16.336 18.4398 16.336 18.0705V17.6767C17.0745 17.0366 18.9946 16.6674 20.5479 16.4951C20.9664 16.4704 21.2618 16.8397 21.2371 17.2335V17.972Z" fill="#5B758F"/>
<path d="M18.3671 9.21853C18.4897 9.35494 18.7024 9.35479 18.825 9.2183C19.3189 8.66829 20.4712 7.34099 20.8662 6.50487C21.1737 5.83858 21.24 5.03446 20.7872 4.23149C20.37 3.49163 19.6135 2.97445 18.766 2.91869C17.2998 2.82224 16.08 3.98348 16.08 5.42903C16.08 5.81871 16.1647 6.18297 16.3256 6.50487C16.6118 7.22363 17.8495 8.643 18.3671 9.21853ZM18.5959 4.27695C19.2312 4.27695 19.748 4.79369 19.748 5.42903C19.748 6.06437 19.2312 6.58111 18.5959 6.58111C17.9606 6.58111 17.4438 6.06437 17.4438 5.42903C17.4438 4.79369 17.9606 4.27695 18.5959 4.27695Z" fill="#5B758F"/>
</g>
<defs>
<clipPath id="clip0_2232_746">
<rect width="25" height="25" fill="white"/>
</clipPath>
</defs>
</svg>
