<svg width="101" height="25" viewBox="0 0 101 25" fill="none" xmlns="http://www.w3.org/2000/svg">
<line x1="2.46289" y1="9.0979" x2="2.46289" y2="16.8648" stroke="black" stroke-opacity="0.24" stroke-width="3" stroke-linecap="round"/>
<line x1="8.26025" y1="5.78516" x2="8.26025" y2="20.1779" stroke="black" stroke-opacity="0.24" stroke-width="3" stroke-linecap="round"/>
<line x1="19.0273" y1="5.78516" x2="19.0273" y2="20.1779" stroke="black" stroke-opacity="0.24" stroke-width="3" stroke-linecap="round"/>
<line x1="72.8618" y1="9.0979" x2="72.8618" y2="16.8648" stroke="black" stroke-opacity="0.24" stroke-width="3" stroke-linecap="round"/>
<line x1="77.8315" y1="5.78516" x2="77.8315" y2="20.1779" stroke="black" stroke-opacity="0.24" stroke-width="3" stroke-linecap="round"/>
<line x1="83.6289" y1="9.0979" x2="83.6289" y2="16.8648" stroke="black" stroke-opacity="0.24" stroke-width="3" stroke-linecap="round"/>
<line x1="88.5981" y1="7.44141" x2="88.5981" y2="18.5212" stroke="black" stroke-opacity="0.24" stroke-width="3" stroke-linecap="round"/>
<line x1="94.396" y1="9.0979" x2="94.396" y2="16.8648" stroke="black" stroke-opacity="0.24" stroke-width="3" stroke-linecap="round"/>
<line x1="34.7637" y1="7.44141" x2="34.7637" y2="18.5212" stroke="black" stroke-opacity="0.24" stroke-width="3" stroke-linecap="round"/>
<line x1="40.561" y1="5.78516" x2="40.561" y2="20.1779" stroke="black" stroke-opacity="0.24" stroke-width="3" stroke-linecap="round"/>
<line x1="45.5308" y1="7.44141" x2="45.5308" y2="18.5212" stroke="black" stroke-opacity="0.24" stroke-width="3" stroke-linecap="round"/>
<line x1="23.9966" y1="9.0979" x2="23.9966" y2="16.8648" stroke="black" stroke-opacity="0.24" stroke-width="3" stroke-linecap="round"/>
<line x1="62.0952" y1="9.0979" x2="62.0952" y2="16.8648" stroke="black" stroke-opacity="0.24" stroke-width="3" stroke-linecap="round"/>
<line x1="67.0645" y1="10.7544" x2="67.0645" y2="15.2084" stroke="black" stroke-opacity="0.24" stroke-width="3" stroke-linecap="round"/>
<line x1="51.3281" y1="9.0979" x2="51.3281" y2="16.8648" stroke="black" stroke-opacity="0.24" stroke-width="3" stroke-linecap="round"/>
<line x1="56.2974" y1="7.44141" x2="56.2974" y2="18.5212" stroke="black" stroke-opacity="0.24" stroke-width="3" stroke-linecap="round"/>
<line x1="29.7944" y1="10.7544" x2="29.7944" y2="15.2084" stroke="black" stroke-opacity="0.24" stroke-width="3" stroke-linecap="round"/>
<line x1="99.3652" y1="10.7544" x2="99.3652" y2="15.2084" stroke="black" stroke-opacity="0.24" stroke-width="3" stroke-linecap="round"/>
<line x1="13.23" y1="2.47217" x2="13.23" y2="23.4907" stroke="black" stroke-opacity="0.24" stroke-width="3" stroke-linecap="round"/>
<line x1="2.46289" y1="9.0979" x2="2.46289" y2="16.8648" stroke="#0055EE" stroke-width="3" stroke-linecap="round"/>
<line x1="8.26025" y1="5.78516" x2="8.26025" y2="20.1779" stroke="#0055EE" stroke-width="3" stroke-linecap="round"/>
<line x1="19.0273" y1="5.78516" x2="19.0273" y2="20.1779" stroke="#0055EE" stroke-width="3" stroke-linecap="round"/>
<line x1="34.7637" y1="7.44141" x2="34.7637" y2="18.5212" stroke="#0055EE" stroke-width="3" stroke-linecap="round"/>
<line x1="40.561" y1="5.78516" x2="40.561" y2="20.1779" stroke="#0055EE" stroke-width="3" stroke-linecap="round"/>
<line x1="45.5308" y1="7.44141" x2="45.5308" y2="18.5212" stroke="#0055EE" stroke-width="3" stroke-linecap="round"/>
<line x1="23.9966" y1="9.0979" x2="23.9966" y2="16.8648" stroke="#0055EE" stroke-width="3" stroke-linecap="round"/>
<line x1="51.3281" y1="9.0979" x2="51.3281" y2="16.8648" stroke="#0055EE" stroke-width="3" stroke-linecap="round"/>
<line x1="29.7944" y1="10.7544" x2="29.7944" y2="15.2084" stroke="#0055EE" stroke-width="3" stroke-linecap="round"/>
<line x1="13.23" y1="2.47217" x2="13.23" y2="23.4907" stroke="#0055EE" stroke-width="3" stroke-linecap="round"/>
</svg>
