<svg width="25" height="25" viewBox="0 0 25 25" fill="none" xmlns="http://www.w3.org/2000/svg">
<path d="M22.3438 14.2083V15.25C22.3438 15.5313 22.125 15.7604 21.8333 15.7708H20.3125C19.7604 15.7708 19.2604 15.3646 19.2188 14.8229C19.1875 14.5 19.3125 14.1979 19.5208 13.9896C19.7083 13.7917 19.9688 13.6875 20.25 13.6875H21.8229C22.125 13.6979 22.3438 13.9271 22.3438 14.2083Z" fill="#5B758F"/>
<path d="M18.7396 13.2189C18.2187 13.7293 17.9687 14.4897 18.1771 15.2814C18.4479 16.2502 19.3958 16.8647 20.3958 16.8647H21.3021C21.875 16.8647 22.3437 17.3335 22.3437 17.9064V18.1043C22.3437 20.2606 20.5833 22.021 18.4271 22.021H6.46873C4.31248 22.021 2.55206 20.2606 2.55206 18.1043V11.0939C2.55206 9.81266 3.16665 8.67725 4.11456 7.96891C4.77081 7.46891 5.58331 7.17725 6.46873 7.17725H18.4271C20.5833 7.17725 22.3437 8.93766 22.3437 11.0939V11.5522C22.3437 12.1252 21.875 12.5939 21.3021 12.5939H20.2396C19.6562 12.5939 19.125 12.8231 18.7396 13.2189Z" fill="#5B758F"/>
<path d="M16.875 5.021C17.1562 5.30225 16.9166 5.73975 16.5208 5.73975L8.52081 5.72933C8.06248 5.72933 7.8229 5.16683 8.15623 4.84391L9.84373 3.146C11.2708 1.72933 13.5833 1.72933 15.0104 3.146L16.8333 4.98975C16.8437 5.00016 16.8646 5.01058 16.875 5.021Z" fill="#5B758F"/>
</svg>
