<svg width="24" height="19" viewBox="0 0 24 19" fill="none" xmlns="http://www.w3.org/2000/svg">
<path d="M19.4875 7.8623C18.8625 8.4748 18.5625 9.38731 18.8125 10.3373C19.1375 11.4998 20.275 12.2373 21.475 12.2373H22.5625C23.25 12.2373 23.8125 12.7998 23.8125 13.4873V13.7248C23.8125 16.3123 21.7 18.4248 19.1125 18.4248H4.7625C2.175 18.4248 0.0625 16.3123 0.0625 13.7248V5.3123C0.0625 3.7748 0.8 2.4123 1.9375 1.5623C2.725 0.962305 3.7 0.612305 4.7625 0.612305H19.1125C21.7 0.612305 23.8125 2.7248 23.8125 5.3123V5.86231C23.8125 6.54981 23.25 7.11231 22.5625 7.11231H21.2875C20.5875 7.11231 19.95 7.3873 19.4875 7.8623Z" fill="#0055EE"/>
</svg>
