<svg width="30" height="30" viewBox="0 0 30 30" fill="none" xmlns="http://www.w3.org/2000/svg">
<rect x="0.5" y="0.5" width="29" height="29" rx="7.5" stroke="#E0E7F1"/>
<path d="M23.6624 16.5033V17.4199C23.6624 17.6674 23.4699 17.8691 23.2132 17.8783H21.8749C21.3891 17.8783 20.9491 17.5208 20.9124 17.0441C20.8849 16.7599 20.9949 16.4941 21.1782 16.3108C21.3432 16.1366 21.5724 16.0449 21.8199 16.0449H23.2041C23.4699 16.0541 23.6624 16.2558 23.6624 16.5033Z" fill="#0055EE"/>
<path d="M20.4909 15.6326C20.0325 16.0818 19.8125 16.7509 19.9959 17.4476C20.2342 18.3001 21.0683 18.8409 21.9483 18.8409H22.7459C23.25 18.8409 23.6625 19.2534 23.6625 19.7576V19.9318C23.6625 21.8293 22.1134 23.3784 20.2159 23.3784H9.69252C7.79502 23.3784 6.24585 21.8293 6.24585 19.9318V13.7626C6.24585 12.6351 6.78668 11.6359 7.62085 11.0126C8.19835 10.5726 8.91335 10.3159 9.69252 10.3159H20.2159C22.1134 10.3159 23.6625 11.8651 23.6625 13.7626V14.1659C23.6625 14.6701 23.25 15.0826 22.7459 15.0826H21.8109C21.2975 15.0826 20.83 15.2843 20.4909 15.6326Z" fill="#0055EE"/>
<path d="M18.85 8.41825C19.0975 8.66575 18.8866 9.05075 18.5383 9.05075L11.4983 9.04159C11.095 9.04159 10.8841 8.54659 11.1775 8.26242L12.6625 6.76825C13.9183 5.52159 15.9533 5.52159 17.2091 6.76825L18.8133 8.39075C18.8225 8.39992 18.8408 8.40909 18.85 8.41825Z" fill="#0055EE"/>
</svg>
